{
    "asset" : {
        "generator" : "Khronos glTF Blender I/O v1.6.16",
        "version" : "2.0"
    },
    "scene" : 0,
    "scenes" : [
        {
            "name" : "Scene",
            "nodes" : [
                0,
                1,
                2,
                3
            ]
        }
    ],
    "nodes" : [
        {
            "name" : "Light",
            "rotation" : [
                0.16907575726509094,
                0.7558803558349609,
                -0.27217137813568115,
                0.570947527885437
            ],
            "translation" : [
                4.076245307922363,
                5.903861999511719,
                -1.0054539442062378
            ]
        },
        {
            "name" : "Camera",
            "rotation" : [
                0.483536034822464,
                0.33687159419059753,
                -0.20870360732078552,
                0.7804827094078064
            ],
            "translation" : [
                7.358891487121582,
                4.958309173583984,
                6.925790786743164
            ]
        },
        {
            "mesh" : 0,
            "name" : "\u7403",
            "rotation" : [
                -0.007432899437844753,
                0.9878689646720886,
                0.13293515145778656,
                0.0799255520105362
            ],
            "scale" : [
                3.2043323516845703,
                3.204332113265991,
                3.204332113265991
            ],
            "translation" : [
                0.017136462032794952,
                -0.31114286184310913,
                -0.12468099594116211
            ]
        },
        {
            "mesh" : 1,
            "name" : "\u5186\u67f1",
            "rotation" : [
                -0.007432899437844753,
                0.9878689646720886,
                0.13293515145778656,
                0.0799255520105362
            ],
            "scale" : [
                0.060973554849624634,
                0.060973554849624634,
                0.06097356230020523
            ],
            "translation" : [
                -0.017136462032794952,
                0.6087838411331177,
                0.12468099594116211
            ]
        }
    ],
    "materials" : [
        {
            "doubleSided" : true,
            "name" : "\u30de\u30c6\u30ea\u30a2\u30eb",
            "pbrMetallicRoughness" : {
                "baseColorTexture" : {
                    "index" : 0
                },
                "metallicFactor" : 0,
                "roughnessFactor" : 0.5
            }
        },
        {
            "doubleSided" : true,
            "name" : "\u30de\u30c6\u30ea\u30a2\u30eb.001",
            "pbrMetallicRoughness" : {
                "baseColorFactor" : [
                    0.03625652566552162,
                    0.011947360821068287,
                    0.004327576607465744,
                    1
                ],
                "metallicFactor" : 0,
                "roughnessFactor" : 0.5
            }
        }
    ],
    "meshes" : [
        {
            "name" : "\u7403.001",
            "primitives" : [
                {
                    "attributes" : {
                        "POSITION" : 0,
                        "NORMAL" : 1,
                        "TEXCOORD_0" : 2
                    },
                    "indices" : 3,
                    "material" : 0
                }
            ]
        },
        {
            "name" : "\u5186\u67f1",
            "primitives" : [
                {
                    "attributes" : {
                        "POSITION" : 4,
                        "NORMAL" : 5,
                        "TEXCOORD_0" : 6
                    },
                    "indices" : 7,
                    "material" : 1
                }
            ]
        }
    ],
    "textures" : [
        {
            "sampler" : 0,
            "source" : 0
        }
    ],
    "images" : [
        {
            "bufferView" : 4,
            "mimeType" : "image/png",
            "name" : "apple"
        }
    ],
    "accessors" : [
        {
            "bufferView" : 0,
            "componentType" : 5126,
            "count" : 923,
            "max" : [
                0.632232129573822,
                0.4639470875263214,
                0.6329612731933594
            ],
            "min" : [
                -0.6319999098777771,
                -0.43538936972618103,
                -0.6333310008049011
            ],
            "type" : "VEC3"
        },
        {
            "bufferView" : 1,
            "componentType" : 5126,
            "count" : 923,
            "type" : "VEC3"
        },
        {
            "bufferView" : 2,
            "componentType" : 5126,
            "count" : 923,
            "type" : "VEC2"
        },
        {
            "bufferView" : 3,
            "componentType" : 5123,
            "count" : 4416,
            "type" : "SCALAR"
        },
        {
            "bufferView" : 5,
            "componentType" : 5126,
            "count" : 969,
            "max" : [
                3.138943672180176,
                9.494735717773438,
                0.6704322099685669
            ],
            "min" : [
                -0.6691633462905884,
                -0.650488018989563,
                -2.2155439853668213
            ],
            "type" : "VEC3"
        },
        {
            "bufferView" : 6,
            "componentType" : 5126,
            "count" : 969,
            "type" : "VEC3"
        },
        {
            "bufferView" : 7,
            "componentType" : 5126,
            "count" : 969,
            "type" : "VEC2"
        },
        {
            "bufferView" : 8,
            "componentType" : 5123,
            "count" : 4224,
            "type" : "SCALAR"
        }
    ],
    "bufferViews" : [
        {
            "buffer" : 0,
            "byteLength" : 11076,
            "byteOffset" : 0
        },
        {
            "buffer" : 0,
            "byteLength" : 11076,
            "byteOffset" : 11076
        },
        {
            "buffer" : 0,
            "byteLength" : 7384,
            "byteOffset" : 22152
        },
        {
            "buffer" : 0,
            "byteLength" : 8832,
            "byteOffset" : 29536
        },
        {
            "buffer" : 0,
            "byteLength" : 683534,
            "byteOffset" : 38368
        },
        {
            "buffer" : 0,
            "byteLength" : 11628,
            "byteOffset" : 721904
        },
        {
            "buffer" : 0,
            "byteLength" : 11628,
            "byteOffset" : 733532
        },
        {
            "buffer" : 0,
            "byteLength" : 7752,
            "byteOffset" : 745160
        },
        {
            "buffer" : 0,
            "byteLength" : 8448,
            "byteOffset" : 752912
        }
    ],
    "samplers" : [
        {
            "magFilter" : 9729,
            "minFilter" : 9987
        }
    ],
    "buffers" : [
        {
            "byteLength" : 761360,
            "uri" : "data:application/octet-stream;base64,"
        }
    ]
}
