{
    "asset" : {
        "generator" : "Khronos glTF Blender I/O v1.6.16",
        "version" : "2.0"
    },
    "scene" : 0,
    "scenes" : [
        {
            "name" : "Scene",
            "nodes" : [
                0,
                1,
                2,
                3
            ]
        }
    ],
    "nodes" : [
        {
            "mesh" : 0,
            "name" : "body",
            "rotation" : [
                0.7071068286895752,
                0,
                0,
                0.7071068286895752
            ]
        },
        {
            "mesh" : 1,
            "name" : "top",
            "rotation" : [
                0.002307602670043707,
                0,
                0,
                0.9999974370002747
            ],
            "scale" : [
                1.0191650390625,
                1.0191650390625,
                1.0191650390625
            ],
            "translation" : [
                0,
                2.1038284301757812,
                0.004011164885014296
            ]
        },
        {
            "mesh" : 2,
            "name" : "top-tab",
            "scale" : [
                -0.06117262318730354,
                -0.06117262318730354,
                -0.06117262318730354
            ],
            "translation" : [
                0,
                2.232618808746338,
                -0.6414141058921814
            ]
        },
        {
            "mesh" : 3,
            "name" : "top-circle",
            "scale" : [
                0.07699151337146759,
                0.02125941775739193,
                0.07699151337146759
            ],
            "translation" : [
                0,
                2.2049710750579834,
                0.020612388849258423
            ]
        }
    ],
    "materials" : [
        {
            "doubleSided" : true,
            "name" : "\u30de\u30c6\u30ea\u30a2\u30eb",
            "pbrMetallicRoughness" : {
                "baseColorFactor" : [
                    0.40195634961128235,
                    0.0005865595303475857,
                    0,
                    1
                ],
                "roughnessFactor" : 0.2142857015132904
            }
        },
        {
            "doubleSided" : true,
            "name" : "\u30de\u30c6\u30ea\u30a2\u30eb.001",
            "pbrMetallicRoughness" : {
                "baseColorFactor" : [
                    0,
                    0.004399941302835941,
                    1,
                    1
                ],
                "metallicFactor" : 2,
                "roughnessFactor" : 0.14897960424423218
            }
        }
    ],
    "meshes" : [
        {
            "name" : "\u5e73\u9762.001",
            "primitives" : [
                {
                    "attributes" : {
                        "POSITION" : 0,
                        "NORMAL" : 1,
                        "TEXCOORD_0" : 2
                    },
                    "indices" : 3,
                    "material" : 0
                }
            ]
        },
        {
            "name" : "\u5186.001",
            "primitives" : [
                {
                    "attributes" : {
                        "POSITION" : 4,
                        "NORMAL" : 5,
                        "TEXCOORD_0" : 6
                    },
                    "indices" : 7,
                    "material" : 0
                }
            ]
        },
        {
            "name" : "\u5e73\u9762.003",
            "primitives" : [
                {
                    "attributes" : {
                        "POSITION" : 8,
                        "NORMAL" : 9,
                        "TEXCOORD_0" : 10
                    },
                    "indices" : 11,
                    "material" : 1
                }
            ]
        },
        {
            "name" : "\u5186\u67f1",
            "primitives" : [
                {
                    "attributes" : {
                        "POSITION" : 12,
                        "NORMAL" : 13,
                        "TEXCOORD_0" : 14
                    },
                    "indices" : 15,
                    "material" : 0
                }
            ]
        }
    ],
    "accessors" : [
        {
            "bufferView" : 0,
            "componentType" : 5126,
            "count" : 8726,
            "max" : [
                1.2187029123306274,
                1.2185453176498413,
                2.2588765621185303
            ],
            "min" : [
                -1.2188125848770142,
                -1.2183195352554321,
                -2.295663356781006
            ],
            "type" : "VEC3"
        },
        {
            "bufferView" : 1,
            "componentType" : 5126,
            "count" : 8726,
            "type" : "VEC3"
        },
        {
            "bufferView" : 2,
            "componentType" : 5126,
            "count" : 8726,
            "type" : "VEC2"
        },
        {
            "bufferView" : 3,
            "componentType" : 5123,
            "count" : 49533,
            "type" : "SCALAR"
        },
        {
            "bufferView" : 4,
            "componentType" : 5126,
            "count" : 5861,
            "max" : [
                0.9836856126785278,
                0.11187633126974106,
                0.9836856126785278
            ],
            "min" : [
                -0.9836856126785278,
                -0.007303119637072086,
                -0.9836856126785278
            ],
            "type" : "VEC3"
        },
        {
            "bufferView" : 5,
            "componentType" : 5126,
            "count" : 5861,
            "type" : "VEC3"
        },
        {
            "bufferView" : 6,
            "componentType" : 5126,
            "count" : 5861,
            "type" : "VEC2"
        },
        {
            "bufferView" : 7,
            "componentType" : 5123,
            "count" : 34848,
            "type" : "SCALAR"
        },
        {
            "bufferView" : 8,
            "componentType" : 5126,
            "count" : 9138,
            "max" : [
                5.340242862701416,
                0.9999136924743652,
                0.9824690222740173
            ],
            "min" : [
                -5.417604923248291,
                -0.9860115051269531,
                -16.3486328125
            ],
            "type" : "VEC3"
        },
        {
            "bufferView" : 9,
            "componentType" : 5126,
            "count" : 9138,
            "type" : "VEC3"
        },
        {
            "bufferView" : 10,
            "componentType" : 5126,
            "count" : 9138,
            "type" : "VEC2"
        },
        {
            "bufferView" : 11,
            "componentType" : 5123,
            "count" : 51264,
            "type" : "SCALAR"
        },
        {
            "bufferView" : 12,
            "componentType" : 5126,
            "count" : 1440,
            "max" : [
                0.550529420375824,
                0.856080174446106,
                0.589720606803894
            ],
            "min" : [
                -0.550529420375824,
                -0.2449789047241211,
                -0.5113382339477539
            ],
            "type" : "VEC3"
        },
        {
            "bufferView" : 13,
            "componentType" : 5126,
            "count" : 1440,
            "type" : "VEC3"
        },
        {
            "bufferView" : 14,
            "componentType" : 5126,
            "count" : 1440,
            "type" : "VEC2"
        },
        {
            "bufferView" : 15,
            "componentType" : 5123,
            "count" : 2202,
            "type" : "SCALAR"
        }
    ],
    "bufferViews" : [
        {
            "buffer" : 0,
            "byteLength" : 104712,
            "byteOffset" : 0
        },
        {
            "buffer" : 0,
            "byteLength" : 104712,
            "byteOffset" : 104712
        },
        {
            "buffer" : 0,
            "byteLength" : 69808,
            "byteOffset" : 209424
        },
        {
            "buffer" : 0,
            "byteLength" : 99066,
            "byteOffset" : 279232
        },
        {
            "buffer" : 0,
            "byteLength" : 70332,
            "byteOffset" : 378300
        },
        {
            "buffer" : 0,
            "byteLength" : 70332,
            "byteOffset" : 448632
        },
        {
            "buffer" : 0,
            "byteLength" : 46888,
            "byteOffset" : 518964
        },
        {
            "buffer" : 0,
            "byteLength" : 69696,
            "byteOffset" : 565852
        },
        {
            "buffer" : 0,
            "byteLength" : 109656,
            "byteOffset" : 635548
        },
        {
            "buffer" : 0,
            "byteLength" : 109656,
            "byteOffset" : 745204
        },
        {
            "buffer" : 0,
            "byteLength" : 73104,
            "byteOffset" : 854860
        },
        {
            "buffer" : 0,
            "byteLength" : 102528,
            "byteOffset" : 927964
        },
        {
            "buffer" : 0,
            "byteLength" : 17280,
            "byteOffset" : 1030492
        },
        {
            "buffer" : 0,
            "byteLength" : 17280,
            "byteOffset" : 1047772
        },
        {
            "buffer" : 0,
            "byteLength" : 11520,
            "byteOffset" : 1065052
        },
        {
            "buffer" : 0,
            "byteLength" : 4404,
            "byteOffset" : 1076572
        }
    ],
    "buffers" : [
        {
            "byteLength" : 1080976,
            "uri" : "data:application/octet-stream;base64,"
        }
    ]
}
